<svg width="111" height="111" viewBox="0 0 111 111" fill="none" xmlns="http://www.w3.org/2000/svg">
<path d="M54.921 110.107C85.032 110.107 109.842 85.2973 109.842 55.1863C109.842 25.0753 85.032 0.265625 54.921 0.265625C24.8099 0.265625 -0.000186563 25.0753 -0.000186563 55.1863C-0.000186563 85.2973 24.8099 110.107 54.921 110.107Z" fill="#0052FF"/>
<path d="M54.9206 87.4886C71.8106 87.4886 85.5206 73.7786 85.5206 56.8886C85.5206 39.9986 71.8106 26.2886 54.9206 26.2886C38.0306 26.2886 24.3206 39.9986 24.3206 56.8886C24.3206 73.7786 38.0306 87.4886 54.9206 87.4886Z" fill="white"/>
<path d="M54.9206 26.2886C38.0306 26.2886 24.3206 39.9986 24.3206 56.8886H54.9206V26.2886Z" fill="#0052FF"/>
</svg>
